<svg xmlns="http://www.w3.org/2000/svg" viewBox="0 0 500 500"><g id="freepik--Desk--inject-90"><path d="M490.35,406c0,.15-107.33.26-239.7.26S10.93,406.19,10.93,406s107.3-.26,239.72-.26S490.35,405.9,490.35,406Z" style="fill:#263238"></path></g><g id="freepik--character-2--inject-90"><path d="M345.93,361.23s-8.13.44-11.26,1.67-18.17,8.41-18.17,8.41-20.38,8.69-24.45,11c-5.2,2.93-16.75,6.22-14.59,24.31h20.23l8.4-12.8,9.69.51,18.92,11.78,76.3,0h54.84s2.3-18.64-7.15-26.57-46.48-16.38-46.48-16.38-13-2.77-16.18-2.77h0Z" style="fill:#002060"></path><g style="opacity:0.30000000000000004"><path d="M331.91,387.52a12.06,12.06,0,0,1,13,6.23c1,2,1.47,4.34,3.18,5.74s3.86,1.44,5.95,1.49l16.77.39a7.89,7.89,0,0,0,4.18-.66c2.06-1.16,2.64-3.78,3.61-5.94a16.15,16.15,0,0,1,9.12-8.18,24,24,0,0,1,12.41-.91c2.72.46,5.81,1.19,8-.46,1.44-1.08,2.07-2.9,3-4.43s2.7-2.93,4.41-2.36c2.3.76,2.75,4.51,5.15,4.83,1.06.14,2.06-.49,3.1-.73s9.29-2.19,9.2-1.12c0,0-7.23,3.92-7.64,4.28-8.16,7.17-16.39,13.88-24.55,21.05l-77.57-.87Z"></path></g><path d="M414.88,372.11a3.35,3.35,0,0,0-.63-.07,1.85,1.85,0,0,0-1.38.86,21.86,21.86,0,0,0-2.5,5.29,31.06,31.06,0,0,0-1.18,8.23,7.53,7.53,0,0,1-.25-2.47,19.56,19.56,0,0,1,.94-5.92,18.34,18.34,0,0,1,2.7-5.37,2.06,2.06,0,0,1,1.67-.83C414.71,371.87,414.9,372.09,414.88,372.11Z" style="fill:#263238"></path><path d="M331.67,392a3.85,3.85,0,0,1-.4-1,20.51,20.51,0,0,1-.57-2.9,56,56,0,0,1-.14-9.73c.23-3.79.62-7.2,1-9.67.17-1.23.33-2.22.45-2.9a4.17,4.17,0,0,1,.25-1.06,5.18,5.18,0,0,1-.05,1.08c-.08.81-.17,1.78-.28,2.93-.26,2.47-.59,5.88-.82,9.65a68.69,68.69,0,0,0,0,9.66C331.26,390.46,331.75,391.92,331.67,392Z" style="fill:#263238"></path><path d="M305.34,392a21.27,21.27,0,0,0-5.1-5.24,21.61,21.61,0,0,0-6.76-2.75,5.74,5.74,0,0,1,2.18.21,14.66,14.66,0,0,1,4.87,2.11,14.26,14.26,0,0,1,3.79,3.72A5.92,5.92,0,0,1,305.34,392Z" style="fill:#263238"></path><path d="M449.48,377.94c0,.09-1.52.13-4,.37a39.56,39.56,0,0,0-9.27,2,54.17,54.17,0,0,0-8.58,4.13,35.91,35.91,0,0,1-3.47,1.94,5.25,5.25,0,0,1,.85-.66c.56-.4,1.39-.94,2.43-1.6a45.76,45.76,0,0,1,8.59-4.3,35,35,0,0,1,9.42-1.92c1.23-.07,2.22-.1,2.91-.07A4.55,4.55,0,0,1,449.48,377.94Z" style="fill:#263238"></path><path d="M430.53,377.71a20.73,20.73,0,0,1-1.95.74,15.13,15.13,0,0,0-7.38,6.38c-.65,1.1-.94,1.85-1,1.82a5.52,5.52,0,0,1,.69-2,13.21,13.21,0,0,1,7.59-6.56A5.3,5.3,0,0,1,430.53,377.71Z" style="fill:#263238"></path><path d="M301.71,388.37c0,.09-1.38.44-3.54,1.23a20,20,0,0,0-7.57,4.64,11.6,11.6,0,0,0-3.27,8,12,12,0,0,0,.78,3.61,3.52,3.52,0,0,1-.51-.88,7.82,7.82,0,0,1-.63-2.71,11.46,11.46,0,0,1,3.25-8.4,19,19,0,0,1,7.83-4.63c1.11-.36,2-.59,2.66-.73A4,4,0,0,1,301.71,388.37Z" style="fill:#263238"></path><path d="M431.37,406a25.4,25.4,0,0,0,1-3.06,19.69,19.69,0,0,0,.06-7.68,12.61,12.61,0,0,0-1.4-4,9.33,9.33,0,0,0-2.26-2.57c-1.57-1.21-2.68-1.78-2.63-1.86a2.67,2.67,0,0,1,.81.34,14.74,14.74,0,0,1,2,1.23,9,9,0,0,1,2.45,2.61,12.64,12.64,0,0,1,1.51,4.11,18.41,18.41,0,0,1-.22,7.86,10.6,10.6,0,0,1-.85,2.25C431.59,405.81,431.4,406.06,431.37,406Z" style="fill:#263238"></path><path d="M358.15,372.38v-.28c-11.37-1.48-16.61-12.45-17.36-25.57-.4-7-.71-7.53-.22-22.62a118.37,118.37,0,0,1,3.82-26.35S353.6,286,371,287.31,397.45,312,397.45,312s-.12,35.53-1.15,42.71a58.5,58.5,0,0,0-.87,9.74l-.41,8.78a18.45,18.45,0,0,1-18.43,17.6h0A18.44,18.44,0,0,1,358.15,372.38Z" style="fill:#ffbe9d"></path><path d="M396.58,334.27c.3-.13,12.22-3.71,11.92,8.48s-12.47,9.37-12.48,9S396.58,334.27,396.58,334.27Z" style="fill:#ffbe9d"></path><path d="M399.85,347.25c.06,0,.21.15.57.32a2.06,2.06,0,0,0,1.58.07c1.3-.44,2.44-2.46,2.55-4.65a7,7,0,0,0-.52-3.06,2.43,2.43,0,0,0-1.56-1.66,1.06,1.06,0,0,0-1.26.55c-.18.33-.11.58-.17.6s-.26-.21-.15-.71a1.42,1.42,0,0,1,.5-.76,1.6,1.6,0,0,1,1.18-.28,3,3,0,0,1,2.18,1.95,7.25,7.25,0,0,1,.65,3.41c-.14,2.46-1.45,4.72-3.23,5.19a2.26,2.26,0,0,1-1.93-.37C399.87,347.54,399.81,347.27,399.85,347.25Z" style="fill:#eb996e"></path><path d="M347.48,331.09c.33.35,2.33-1.16,5.19-1.17s5,1.4,5.26,1.05c.15-.16-.19-.78-1.1-1.44a7.27,7.27,0,0,0-4.22-1.26,7,7,0,0,0-4.13,1.36C347.61,330.31,347.32,330.94,347.48,331.09Z" style="fill:#263238"></path><path d="M375.47,330.61c.34.34,2.34-1.16,5.19-1.18s5,1.4,5.27,1.05c.15-.16-.19-.78-1.11-1.44a7.32,7.32,0,0,0-4.22-1.26,7,7,0,0,0-4.12,1.36C375.61,329.82,375.31,330.45,375.47,330.61Z" style="fill:#263238"></path><path d="M378.43,321.48c.15.6,1.88.67,3.77,1.28s3.37,1.46,3.84,1.05c.21-.21.09-.76-.45-1.42a6.13,6.13,0,0,0-6-1.83C378.78,320.8,378.37,321.19,378.43,321.48Z" style="fill:#263238"></path><path d="M349.26,320.35c.5.56,2.34.64,4.11.2s2.81-1.25,2.32-1.8-2.34-.64-4.11-.19S348.77,319.8,349.26,320.35Z" style="fill:#263238"></path><path d="M368.66,352.42c0,.17.34.47,1.1.58a4,4,0,0,0,4.36-3.31c.11-.76-.08-1.21-.26-1.21-.36,0-.65,1.61-2.07,2.67S368.74,352.07,368.66,352.42Z" style="fill:#263238"></path><path d="M358.14,372.1s14.61.23,18.06-2.29c0,0-2.2,7-17.67,6.27Z" style="fill:#eb996e"></path><path d="M333.37,309.65c-.18-2.86-1.05-5.66-1.06-8.53a15.47,15.47,0,0,1,5.2-11.31,18.42,18.42,0,0,1,11.73-4.5c3.21-.08,6.44.6,9.61.13,2.7-.39,5.2-1.6,7.85-2.26a20,20,0,0,1,16.1,3s5.59,3.25,12.48,11.26c0,0,12.48.37,11.92,17.87S405.41,335,405.41,335l-4.12-1.25c.35,2,.69,4.09-.4,5.93a3.19,3.19,0,0,1-2.81,1.65c-2.41-.12-3.21-2.9-3.48-5.15q-1.1-8.92-1.34-17.91c-.05-1.68-.41-3.8-2-4.19-1-.22-1.9.3-2.85.55a5.31,5.31,0,0,1-5.31-1.7c-.2,2.29-3.3,3.32-5.38,2.35s-3.31-3.11-4.41-5.12a9.23,9.23,0,0,1-.29,3.78,3.13,3.13,0,0,1-2.84,2.18c-1.48-.07-2.49-1.49-3.18-2.8a35,35,0,0,1-3.46-10.09,21.16,21.16,0,0,1-8.82,13.43q-.78-2.3-1.55-4.59A9.05,9.05,0,0,1,351,314.5a3.09,3.09,0,0,1-3.1.41,2,2,0,0,1-1-1.92,3.55,3.55,0,0,1-4.63,1.16,3.82,3.82,0,0,1-1.36-1.46c.59,8.92,1.17,18.59-.48,27.08l-4.1-9.25a35.89,35.89,0,0,1-3-17.5A23.68,23.68,0,0,0,333.37,309.65Z" style="fill:#263238"></path><path d="M394.42,299.81c.08,0,.23-.8.87-1.93a8,8,0,0,1,3.7-3.3,7.82,7.82,0,0,1,4.94-.31c1.26.33,1.95.79,2,.72s-.14-.16-.45-.36A6.74,6.74,0,0,0,404,294a7.59,7.59,0,0,0-5.2.2,7.68,7.68,0,0,0-3.8,3.56,6.17,6.17,0,0,0-.54,1.5C394.4,299.6,394.39,299.81,394.42,299.81Z" style="fill:#263238"></path><path d="M392.87,299.45s.21-.11.53-.38a7.85,7.85,0,0,0,1.2-1.29,9.86,9.86,0,0,0,.6-11.06,8.78,8.78,0,0,0-1.06-1.42c-.28-.3-.46-.44-.48-.42s.58.71,1.27,2a10.24,10.24,0,0,1-.58,10.73C393.53,298.8,392.82,299.39,392.87,299.45Z" style="fill:#263238"></path><path d="M363.14,337.41c-.18-.05-.52.58-.92,1.64-.2.52-.42,1.16-.64,1.87-.11.36-.22.73-.34,1.11a5.71,5.71,0,0,0-.3,1.37,2.18,2.18,0,0,0,.58,1.63,2.49,2.49,0,0,0,1.38.69,2.8,2.8,0,0,0,1.3-.11,3.92,3.92,0,0,0,.94-.5c1-.79,1.27-1.43,1.17-1.55s-.74.29-1.66.75a2.29,2.29,0,0,1-1.53.21,1.3,1.3,0,0,1-.65-.37.88.88,0,0,1-.2-.69,4.85,4.85,0,0,1,.22-1.07c.09-.39.17-.77.26-1.15.16-.73.28-1.39.37-1.95C363.3,338.17,363.31,337.45,363.14,337.41Z" style="fill:#263238"></path><path d="M401,318.27a3.46,3.46,0,0,0,.15-.86c.07-.55.16-1.36.24-2.36a26.36,26.36,0,0,0-.42-7.83,13.19,13.19,0,0,0-3.82-6.82,8.55,8.55,0,0,0-2-1.36,3,3,0,0,0-.82-.31,16,16,0,0,1,2.58,1.9,13.69,13.69,0,0,1,3.6,6.69A29.54,29.54,0,0,1,401,315,27.36,27.36,0,0,0,401,318.27Z" style="fill:#455a64"></path><path d="M390.39,313.74a6.91,6.91,0,0,0,1.43-1.76,16.12,16.12,0,0,0,2.16-5,16.3,16.3,0,0,0,.37-5.46,6.88,6.88,0,0,0-.47-2.21c-.07,0,.09.86.16,2.23a18.74,18.74,0,0,1-.49,5.33,19.3,19.3,0,0,1-2,5C390.87,313,390.33,313.69,390.39,313.74Z" style="fill:#455a64"></path><path d="M364.07,303a1.8,1.8,0,0,0,0-.42c0-.32,0-.72,0-1.2a35.46,35.46,0,0,1,.34-4.38,13,13,0,0,1,2.35-5.93,8.44,8.44,0,0,1,2.88-2.38,11,11,0,0,1,3.9-1.07,15.28,15.28,0,0,1,7.69,1.39,17.91,17.91,0,0,1,3,1.75,18.18,18.18,0,0,1,2.26,2,15.8,15.8,0,0,1,2.55,3.53c.5.91.7,1.45.74,1.44s0-.15-.12-.41a10.4,10.4,0,0,0-.46-1.11,15.37,15.37,0,0,0-2.49-3.67,17.8,17.8,0,0,0-2.26-2.08,18.23,18.23,0,0,0-3-1.83,15.46,15.46,0,0,0-7.9-1.46,11,11,0,0,0-4.05,1.13,8.57,8.57,0,0,0-3,2.52,12.94,12.94,0,0,0-2.34,6.13,27.54,27.54,0,0,0-.2,4.42c0,.52,0,.93,0,1.2A1.37,1.37,0,0,0,364.07,303Z" style="fill:#455a64"></path><path d="M350.08,305.64a1.42,1.42,0,0,0,.13-.42c.07-.32.16-.73.27-1.21.24-1.06.57-2.59,1.11-4.44a26.25,26.25,0,0,1,2.58-6.22,13.84,13.84,0,0,1,5.9-5.53,18.19,18.19,0,0,1,8-1.64,32.43,32.43,0,0,1,6.7.84c1.88.42,3.39.84,4.44,1.11l1.2.32a1.76,1.76,0,0,0,.43.08,1.76,1.76,0,0,0-.4-.17l-1.19-.39c-1-.33-2.53-.8-4.41-1.25a30.9,30.9,0,0,0-6.77-1,18.22,18.22,0,0,0-8.19,1.66,14,14,0,0,0-6.05,5.71,25.24,25.24,0,0,0-2.53,6.34c-.51,1.88-.79,3.43-1,4.49-.09.54-.15.95-.19,1.24A2,2,0,0,0,350.08,305.64Z" style="fill:#455a64"></path><path d="M343.22,307.94c.07,0-.1-1.35-.27-3.51a18.74,18.74,0,0,1,.91-8.29,9.45,9.45,0,0,1,2.57-3.73,7.32,7.32,0,0,1,6.73-1.61s-.07-.05-.22-.12a4,4,0,0,0-.67-.22,6.15,6.15,0,0,0-2.61,0,7.7,7.7,0,0,0-3.49,1.67,9.55,9.55,0,0,0-2.72,3.88,17.63,17.63,0,0,0-.81,8.47c.12,1.09.26,2,.37,2.56A3.7,3.7,0,0,0,343.22,307.94Z" style="fill:#455a64"></path><path d="M382.42,344.39c.12,0,.16-.31.1-.64s-.22-.58-.34-.55-.16.31-.09.64S382.3,344.41,382.42,344.39Z" style="fill:#eb996e"></path><path d="M377.32,343.32c.12,0,.27-.09.33-.29s0-.38-.09-.42-.26.09-.32.28S377.21,343.28,377.32,343.32Z" style="fill:#eb996e"></path><path d="M379.91,346.4c.12,0,.24-.24.28-.57s0-.6-.17-.62-.24.25-.27.58S379.79,346.39,379.91,346.4Z" style="fill:#eb996e"></path><path d="M386.34,345.81c.11,0,.13-.33,0-.66s-.27-.56-.39-.53-.13.33,0,.66S386.22,345.84,386.34,345.81Z" style="fill:#eb996e"></path><path d="M352.42,343.2c.12,0,.24-.21.27-.51s0-.54-.16-.56-.24.22-.27.51S352.29,343.19,352.42,343.2Z" style="fill:#eb996e"></path><path d="M347.65,343.08c.12,0,.22-.27.22-.59s-.1-.6-.22-.6-.22.27-.22.6S347.53,343.08,347.65,343.08Z" style="fill:#eb996e"></path><path d="M343.7,342.84c.12,0,.27-.23.34-.55s0-.62-.1-.64-.27.22-.33.55S343.58,342.81,343.7,342.84Z" style="fill:#eb996e"></path><path d="M349.9,347.11c.12,0,.14-.32,0-.65s-.28-.57-.39-.53-.13.33,0,.65S349.79,347.15,349.9,347.11Z" style="fill:#eb996e"></path><path d="M345.42,346.52c.12,0,.24-.18.27-.44s0-.49-.16-.5-.24.18-.27.44S345.3,346.51,345.42,346.52Z" style="fill:#eb996e"></path><path d="M376.82,334.78a2.63,2.63,0,0,0,2.32,2.85,2.51,2.51,0,0,0,2.89-2.14,2.63,2.63,0,0,0-2.31-2.85A2.51,2.51,0,0,0,376.82,334.78Z" style="fill:#263238"></path><path d="M350.59,335.33a2.62,2.62,0,0,0,2.31,2.85,2.51,2.51,0,0,0,2.89-2.14,2.62,2.62,0,0,0-2.31-2.85A2.5,2.5,0,0,0,350.59,335.33Z" style="fill:#263238"></path><path d="M327.85,409.63l-33,32.38h76.32s4-6.46,11.39-5.92,40.6,9.74,50.6,8.1l-8.75-35.9s-26.42-7.66-41.46-4.76a21.75,21.75,0,0,0-11,5.8h0Z" style="fill:#fafafa"></path><path d="M327.85,409.63l.47,0,1.37,0,5.38-.07,20.3-.21,14.38-.13,2,0H372c-.24.1-.05,0-.1,0L372,409l.37-.35c.26-.22.5-.45.77-.67a22,22,0,0,1,3.44-2.35,21.3,21.3,0,0,1,8.32-2.6,51.69,51.69,0,0,1,9.27-.27c3.17.13,6.42.49,9.73,1a167.64,167.64,0,0,1,20.51,4.33l.13,0,0,.14c2.73,11.15,5.69,23.27,8.77,35.89l.07.29-.28,0a24,24,0,0,1-3.17.18l-1.59,0-1.59-.12c-1.07-.07-2.13-.19-3.19-.33s-2.14-.26-3.21-.43c-4.28-.65-8.6-1.47-12.94-2.36-6.6-1.34-13.06-2.84-19.43-4.11-3.17-.56-6.39-1.42-9.42-.5a13.57,13.57,0,0,0-7.28,5.4l-.08.12h-.13l-76.32-.07h-.44l.32-.31L319,418.21l6.59-6.39,1.71-1.64.59-.55-.57.6-1.69,1.69-6.53,6.47-24.12,23.75-.13-.31,76.32-.07-.22.12a14,14,0,0,1,7.57-5.64,12,12,0,0,1,4.85-.31c1.62.18,3.21.5,4.81.8,6.38,1.27,12.84,2.77,19.44,4.11,4.33.89,8.64,1.71,12.91,2.35,1.06.18,2.13.32,3.19.44s2.11.26,3.17.32l1.57.13,1.57,0a22.6,22.6,0,0,0,3.09-.16l-.21.31c-3.07-12.62-6-24.74-8.73-35.9l.16.17a168.14,168.14,0,0,0-20.43-4.35c-3.3-.48-6.53-.84-9.69-1a51.85,51.85,0,0,0-9.2.25,20.94,20.94,0,0,0-8.19,2.53,22.42,22.42,0,0,0-3.39,2.3c-.26.21-.5.44-.76.66l-.36.34-.18.17c-.06,0,.11,0-.15.07h-2.19l-14.35.07-20.29.07h-6.79Z" style="fill:#263238"></path><path d="M371.13,442c-.15,0,0-7.36.23-16.42s.61-16.42.75-16.41,0,7.35-.23,16.42S371.27,442,371.13,442Z" style="fill:#263238"></path><path d="M360.61,435.82a5.58,5.58,0,0,0-1.83-2.25,7.3,7.3,0,0,0-3.21-1.28,14.16,14.16,0,0,0-4.66.2,98.92,98.92,0,0,1-28.43,2l-.6-.05.46-.39a47.55,47.55,0,0,1,13.91-8.27,48,48,0,0,1,11-2.78c.91-.11,1.81-.21,2.71-.27a5.3,5.3,0,0,1,2.74.26,1.5,1.5,0,0,1,.88,1.2,1.72,1.72,0,0,1-.54,1.35,6.81,6.81,0,0,1-2.28,1.3,20.56,20.56,0,0,1-9.42,1.41,19.85,19.85,0,0,1-4.26-.82,13.48,13.48,0,0,1-1.93-.73,6.33,6.33,0,0,1-1.64-1.14,3.15,3.15,0,0,1-1-1.66,2.33,2.33,0,0,1,.41-1.79,7.27,7.27,0,0,1,2.71-1.84,41.56,41.56,0,0,1,4.79-1.94c1.35-.45,2.42-.72,3.14-.89.37-.09.64-.15.83-.18a.92.92,0,0,1,.29,0,1.09,1.09,0,0,1-.28.09l-.81.23c-.72.2-1.77.51-3.1,1a44.31,44.31,0,0,0-4.73,2,7,7,0,0,0-2.57,1.77,2,2,0,0,0-.34,1.53,2.83,2.83,0,0,0,.9,1.47,6.16,6.16,0,0,0,1.55,1.06,14.73,14.73,0,0,0,1.87.68,19.31,19.31,0,0,0,4.19.78,20.16,20.16,0,0,0,9.2-1.42,6.47,6.47,0,0,0,2.1-1.2,1.23,1.23,0,0,0,.41-1,1,1,0,0,0-.61-.8,4.88,4.88,0,0,0-2.49-.21c-.88.06-1.78.16-2.68.28a46.81,46.81,0,0,0-10.84,2.76,47.29,47.29,0,0,0-13.78,8.16l-.14-.44a101.71,101.71,0,0,0,28.33-1.81,14.07,14.07,0,0,1,4.76-.14,7.43,7.43,0,0,1,3.27,1.38,5.21,5.21,0,0,1,1.45,1.68A2.53,2.53,0,0,1,360.61,435.82Z" style="fill:#263238"></path><path d="M430,444s.07.08.16.25.24.47.41.78c.36.74.87,1.75,1.5,3l.07.13-.15.05A41.68,41.68,0,0,1,419.73,450a42.61,42.61,0,0,1-17.27-3.79c-4.38-2-8.37-4.19-12.25-5.58a24.13,24.13,0,0,0-10.68-1.69,15.15,15.15,0,0,0-6.89,2.35,18.25,18.25,0,0,0-2.11,1.68,8.11,8.11,0,0,1,2-1.85,14.86,14.86,0,0,1,7-2.55,24.21,24.21,0,0,1,10.88,1.61c3.94,1.39,7.95,3.61,12.3,5.55a42.9,42.9,0,0,0,17.07,3.82A43.64,43.64,0,0,0,431.89,448l-.08.18c-.59-1.31-1.05-2.33-1.4-3.09-.13-.32-.25-.58-.34-.8A.92.92,0,0,1,430,444Z" style="fill:#263238"></path><path d="M386.67,425.31a55.21,55.21,0,0,1-.4-10.7,55.21,55.21,0,0,1,.4,10.7Z" style="fill:#263238"></path><path d="M397,431.71a17.39,17.39,0,0,1-2.22-1.41,62.26,62.26,0,0,0-5.44-3.21c-2.19-1.14-4.24-2-5.75-2.63a15.78,15.78,0,0,1-2.42-1,11.26,11.26,0,0,1,2.55.67,41.09,41.09,0,0,1,5.86,2.52A40.49,40.49,0,0,1,395,430,10.55,10.55,0,0,1,397,431.71Z" style="fill:#263238"></path><path d="M413.52,424.08a80.83,80.83,0,0,1-8.25,4,82.42,82.42,0,0,1-8.46,3.54,82.14,82.14,0,0,1,8.25-4A79.79,79.79,0,0,1,413.52,424.08Z" style="fill:#263238"></path><path d="M407,426.14a50.12,50.12,0,0,1-.16-7.21,50.89,50.89,0,0,1,.35-7.21,50.74,50.74,0,0,1,.17,7.21A51.85,51.85,0,0,1,407,426.14Z" style="fill:#263238"></path><path d="M403,431.08c-.15,0-.31-.39-.37-.9s0-.94.16-1,.3.39.36.9S403.16,431.06,403,431.08Z" style="fill:#263238"></path><path d="M404.61,430.87c-.14,0-.3-.58-.35-1.32s0-1.34.16-1.36.31.59.36,1.33S404.76,430.86,404.61,430.87Z" style="fill:#263238"></path><path d="M404.08,433.55c.06,0,.18.53.66,1.31a1.82,1.82,0,0,0,1.27.84.87.87,0,0,0,.78-.31.72.72,0,0,0,.13-.84l.37-.22a3.66,3.66,0,0,0,2.47,1.63,3.3,3.3,0,0,0,3.11-1.07,3.43,3.43,0,0,0,.45-4.14,2.57,2.57,0,0,0-1.53-1.1,3.84,3.84,0,0,0-1.72,0,7.34,7.34,0,0,0-2.33,1.1,4.58,4.58,0,0,1-.83.51s.22-.28.71-.67a6.62,6.62,0,0,1,2.36-1.3,4.19,4.19,0,0,1,1.91-.06,3,3,0,0,1,1.83,1.26,3.6,3.6,0,0,1,.6,2.36,4.11,4.11,0,0,1-1.07,2.39,3.78,3.78,0,0,1-3.58,1.21,4.06,4.06,0,0,1-2.75-1.9l.37-.23a1.15,1.15,0,0,1-.2,1.33A1.24,1.24,0,0,1,406,436a2,2,0,0,1-1.44-1.05,4.51,4.51,0,0,1-.4-1.05C404.07,433.69,404.06,433.56,404.08,433.55Z" style="fill:#263238"></path><path d="M422.25,429.53s.16-.14.52-.14a1.74,1.74,0,0,1,1.27.71,2,2,0,0,1,.25,2.17,2.69,2.69,0,0,1-2.33,1.29,2.84,2.84,0,0,1-2.37-1.21,2,2,0,0,1-.16-2.17,1.76,1.76,0,0,1,1.16-.89c.35-.06.54,0,.53,0s-.19,0-.48.14a1.79,1.79,0,0,0-.89.87,1.68,1.68,0,0,0,.24,1.72,2.39,2.39,0,0,0,2,1,2.24,2.24,0,0,0,1.92-1,1.61,1.61,0,0,0-.12-1.71,1.67,1.67,0,0,0-1-.73C422.44,429.53,422.26,429.58,422.25,429.53Z" style="fill:#263238"></path><path d="M421.51,427.58c-.14,0-.3-.68-.36-1.53s0-1.55.15-1.56.31.67.37,1.53S421.66,427.57,421.51,427.58Z" style="fill:#263238"></path><path d="M422.16,436.63c-.14,0-.26-.5-.26-1.13s.12-1.13.26-1.13.26.51.26,1.13S422.31,436.63,422.16,436.63Z" style="fill:#263238"></path><path d="M418.87,432.93c.1.1-.36.77-1.05,1.51s-1.32,1.26-1.42,1.16.36-.77,1-1.51S418.76,432.83,418.87,432.93Z" style="fill:#263238"></path><path d="M427.49,435c-.08.12-.64-.12-1.25-.54s-1.05-.85-1-1,.64.13,1.26.54S427.57,434.9,427.49,435Z" style="fill:#263238"></path><path d="M427.52,429.84c0,.14-.39.39-1,.56s-1.06.2-1.1.06.38-.39,1-.56S427.47,429.7,427.52,429.84Z" style="fill:#263238"></path><path d="M425.91,426.38c.12.09-.12.57-.52,1.08s-.83.84-.94.75.12-.57.53-1.08S425.8,426.29,425.91,426.38Z" style="fill:#263238"></path><path d="M418.89,428.37c-.08.12-.6-.06-1.16-.4s-1-.72-.9-.85.6.06,1.17.4S419,428.24,418.89,428.37Z" style="fill:#263238"></path><path d="M417,430.05c0,.14-.47.26-1,.26s-1-.12-1-.26.46-.26,1-.26S417,429.9,417,430.05Z" style="fill:#263238"></path><path d="M398.7,412.55a10.47,10.47,0,0,1,0,2.19c-.06,1.36-.17,3.25-.33,5.39l0,.25h-.25l-1.23-.05-3.3-.17h-.24v-.23c0-1.62,0-3,.07-4a6.15,6.15,0,0,1,.13-1.54,5.7,5.7,0,0,1,.16,1.54c.05,1,.09,2.35.12,4l-.23-.24,3.31.13,1.23.06-.27.23c.17-2.14.35-4,.5-5.38A9.47,9.47,0,0,1,398.7,412.55Z" style="fill:#263238"></path><path d="M419.7,415.15a50.31,50.31,0,0,1-10.09-1.23,23.77,23.77,0,0,1,5.08.36A25.45,25.45,0,0,1,419.7,415.15Z" style="fill:#263238"></path><path d="M384.9,415.78a36.8,36.8,0,0,1-8.65-.07,18.25,18.25,0,0,1,4.33-.23A17.74,17.74,0,0,1,384.9,415.78Z" style="fill:#263238"></path><path d="M424.21,386.42,407,390.2s-5.09-3.94-7.28-4.06-10.18,0-10.18,0-8,6.13-8,7.64a9.35,9.35,0,0,0,1,3.47s-1.19.84-.48,3.95,1.29,3.33,1.29,3.33-1.51,2.9.34,4.05a23.09,23.09,0,0,0,5.67,2l5.82-1C393.06,410,410.17,409,411,406h20.37C433.22,397.16,433.26,388.88,424.21,386.42Z" style="fill:#ffbe9d"></path><path d="M393.66,392.52a34.63,34.63,0,0,0-5.8,1.72,55,55,0,0,0-5.26,3,5.06,5.06,0,0,1,1.31-1.25,18.18,18.18,0,0,1,3.74-2.24A12.05,12.05,0,0,1,393.66,392.52Z" style="fill:#eb996e"></path><path d="M395.25,397.82c0,.15-3,.74-6.59,1.66-1.82.45-3.44.92-4.6,1.32a12,12,0,0,1-1.88.64,5.67,5.67,0,0,1,1.75-1,40.57,40.57,0,0,1,11.32-2.64Z" style="fill:#eb996e"></path><path d="M393.81,404.56a44.09,44.09,0,0,1-5.21-.09c-2.86-.1-5.16.2-5.19.06a13.49,13.49,0,0,1,5.2-.58A18.5,18.5,0,0,1,393.81,404.56Z" style="fill:#eb996e"></path><path d="M412.69,398.68a4,4,0,0,1,.31,1.59,9.53,9.53,0,0,1-.49,3.92,6.5,6.5,0,0,1-1.09,1.92,5.54,5.54,0,0,1-1.37,1.18,3.14,3.14,0,0,1-1.54.56c0-.09.56-.3,1.34-.87a6,6,0,0,0,1.2-1.17,6.84,6.84,0,0,0,1-1.8,11.66,11.66,0,0,0,.62-3.73A6.8,6.8,0,0,1,412.69,398.68Z" style="fill:#eb996e"></path><path d="M337.83,406.31s-1.12,4.47,5.16,4.19l.69-12.14s-.27-4.46-6.69-3.76l-1.26,5.16a6.32,6.32,0,0,1,1.68,2.76A36.59,36.59,0,0,1,337.83,406.31Z" style="fill:#ffbe9d"></path><path d="M315.41,381l24.92,30.62,7.16,2.42-1.62-7.82-24.32-30.43a4.06,4.06,0,0,0-3.59-1.54l-.09,0A4.1,4.1,0,0,0,315.41,381Z" style="fill:#455a64"></path><path d="M315.5,381.18c-.06,0,.06-.51.45-1.21a7.61,7.61,0,0,1,4.94-3.55,2.33,2.33,0,0,1,1.28-.05,15.46,15.46,0,0,0-3.82,1.73A14.8,14.8,0,0,0,315.5,381.18Z" style="fill:#263238"></path><path d="M340.33,411.64s-.5-.33-.58-1.28a1.15,1.15,0,0,1,.07-.39l.13-.33a3.87,3.87,0,0,1,1.62-2.11,12.57,12.57,0,0,1,1.53-1,4,4,0,0,1,1.46-.48c.89-.1,1.4.19,1.37.24s-.53-.06-1.31.13a4,4,0,0,0-1.28.53c-.45.29-1,.62-1.45,1a5,5,0,0,0-1.2,1.2c-.13.22-.24.45-.35.67l-.15.32a.72.72,0,0,0-.07.25C340.09,411.13,340.42,411.61,340.33,411.64Z" style="fill:#263238"></path><path d="M341.36,408.3c-.11.09-5.53-6.49-12.11-14.7s-11.81-14.93-11.7-15,5.53,6.49,12.11,14.69S341.47,408.21,341.36,408.3Z" style="fill:#263238"></path><path d="M344,405.77c-.11.09-5.45-6.31-11.92-14.3s-11.62-14.55-11.51-14.64,5.45,6.31,11.92,14.31S344.07,405.68,344,405.77Z" style="fill:#263238"></path><path d="M346.77,410.58a2.21,2.21,0,0,0-2,.49,2.15,2.15,0,0,0-.63,1.89l3.32,1.1Z" style="fill:#263238"></path><path d="M303,388.67l12.86,4.15s5.65-4.75,7.85-4.87l7.44-.37s9.2,6.13,9.2,7.63a9.35,9.35,0,0,1-1,3.47s2.53,1,2,3.13a3.83,3.83,0,0,1-2.86,2.87s1.55,4.18-.3,5.33a23,23,0,0,1-5.67,2s-3.35,2.66-5.55,2.43-13.19-.93-14.46-3l-13.36-3.24L289,405.66s-3.89-5.06,2.1-11.18A19.13,19.13,0,0,1,303,388.67Z" style="fill:#ffbe9d"></path><path d="M339.89,394.48a45.38,45.38,0,0,0-5.68-1.29,43.78,43.78,0,0,0-5.82,0,14.92,14.92,0,0,1,11.5,1.28Z" style="fill:#eb996e"></path><path d="M339.27,398.68c0,.12-2.08-.3-4.63-.66a24.71,24.71,0,0,0-3.28-.26c-.84,0-1.31.18-1.35.12s.45-.4,1.33-.49a13.73,13.73,0,0,1,3.37.12C337.3,397.87,339.38,398.52,339.27,398.68Z" style="fill:#eb996e"></path><path d="M338.41,404.68c-.05.1-1.72-.27-3.87-.45s-3.85-.17-3.88-.28,1.76-.47,3.93-.24S338.48,404.51,338.41,404.68Z" style="fill:#eb996e"></path><path d="M289,405.66a3.09,3.09,0,0,1,.44.07l1.26.28,4.78,1.1,17,4.07.08,0,.06.09a4,4,0,0,0,1.9,1.06,19.38,19.38,0,0,0,2.36.59c1.62.33,3.33.55,5.09.75s3.61.37,5.39.47a7,7,0,0,0,2.55-.85,18,18,0,0,0,2.37-1.53l.05,0h.06a30.59,30.59,0,0,0,3.45-1,11.7,11.7,0,0,0,1.85-.79,1.73,1.73,0,0,0,1-1.41,8.3,8.3,0,0,0-.52-3.78l-.1-.28.29-.07a3.56,3.56,0,0,0,2.65-2.65,2,2,0,0,0-.34-1.75,3.72,3.72,0,0,0-1.49-1.11l-.25-.11.12-.24a11.92,11.92,0,0,0,.79-2,5.06,5.06,0,0,0,.2-1,1.82,1.82,0,0,0,0-.45,1.22,1.22,0,0,0-.21-.38,18.7,18.7,0,0,0-2.92-2.71c-2.06-1.62-4.07-3-5.93-4.31l.11,0-7,.31a5.32,5.32,0,0,0-2.64.84,23.67,23.67,0,0,0-2,1.26c-1.2.81-2.1,1.49-2.71,1.95l-.69.52c-.16.12-.24.18-.25.17s.06-.08.21-.21l.66-.57c.59-.49,1.47-1.2,2.65-2,.6-.42,1.27-.88,2-1.32a5.58,5.58,0,0,1,2.75-.91l7-.39h.06l0,0c1.89,1.26,3.91,2.66,6,4.29a18.7,18.7,0,0,1,3,2.79,1.83,1.83,0,0,1,.28.54,1,1,0,0,1,0,.33,2.64,2.64,0,0,1,0,.28,6.79,6.79,0,0,1-.22,1.09,11.34,11.34,0,0,1-.82,2.06l-.13-.34a4.17,4.17,0,0,1,1.72,1.28,2.52,2.52,0,0,1,.43,2.16,4.09,4.09,0,0,1-3.05,3l.2-.34a8.9,8.9,0,0,1,.56,4.06,2.63,2.63,0,0,1-.41,1,2.26,2.26,0,0,1-.86.72,12.66,12.66,0,0,1-1.93.84,33.91,33.91,0,0,1-3.51,1l.1-.06a16,16,0,0,1-2.45,1.58,7.37,7.37,0,0,1-2.76.91c-1.93-.1-3.69-.3-5.48-.49s-3.48-.44-5.13-.77a20.57,20.57,0,0,1-2.4-.62,4.24,4.24,0,0,1-2.14-1.27l.14.1-17-4.25-4.74-1.23-1.24-.34A2.62,2.62,0,0,1,289,405.66Z" style="fill:#eb996e"></path></g><g id="freepik--character-1--inject-90"><path d="M212.48,366.78c-3.71-3.13-6.58-5.66-9.84-8.73a28.19,28.19,0,0,0-17.93-7.63l-56.47-2.83h-10.1c-5.73,0-36.62,22.1-40.84,26.7l28.19,25.58L109,398l-.41,8.68,82.23-.19.74-12.1,15.27,9.82,20-23.73S218.72,372,212.48,366.78Z" style="fill:#002060"></path><path d="M192.15,355.07a34.12,34.12,0,0,0-2.77,2.58,18.5,18.5,0,0,0-4.12,8,24.33,24.33,0,0,0-.29,9.05c.34,2.32.77,3.71.69,3.74a3.56,3.56,0,0,1-.38-1,23,23,0,0,1-.68-2.72,22.55,22.55,0,0,1,.15-9.23,17.65,17.65,0,0,1,4.36-8.11,13.64,13.64,0,0,1,2.14-1.83A3.47,3.47,0,0,1,192.15,355.07Z" style="fill:#263238"></path><path d="M153.68,397.17a5.37,5.37,0,0,1-1.07-.39c-.68-.27-1.65-.73-2.81-1.34a45.55,45.55,0,0,1-15.43-13.33c-.77-1.06-1.36-1.95-1.73-2.59a4.68,4.68,0,0,1-.54-1c.08,0,1,1.31,2.56,3.37a54.48,54.48,0,0,0,7,7.36,53.72,53.72,0,0,0,8.31,5.87C152.24,396.41,153.72,397.09,153.68,397.17Z" style="fill:#263238"></path><path d="M114.89,371.19a1.46,1.46,0,0,1-.66.25,4.38,4.38,0,0,1-1.94,0,5,5,0,0,1-2.49-1.47,5.16,5.16,0,0,1-1.31-3.29,5.64,5.64,0,0,1,1-3.4,6.11,6.11,0,0,1,2.17-1.9,5.94,5.94,0,0,1,1.84-.59c.45-.07.7,0,.7,0a12.26,12.26,0,0,0-2.36.93,6.1,6.1,0,0,0-1.95,1.84,5.28,5.28,0,0,0-.86,3.11,4.7,4.7,0,0,0,3.38,4.42A6.83,6.83,0,0,0,114.89,371.19Z" style="fill:#fafafa"></path><path d="M131.18,353.63s-.09.27-.38.66a5.76,5.76,0,0,1-1.55,1.37,6.9,6.9,0,0,1-2.9,1,6.35,6.35,0,0,1-6.44-3.27,7,7,0,0,1-.89-3,5.68,5.68,0,0,1,.2-2.06c.14-.47.27-.7.3-.69a10.59,10.59,0,0,0-.14,2.71,7.17,7.17,0,0,0,1,2.75,6,6,0,0,0,6,3,7,7,0,0,0,2.77-.85A10.91,10.91,0,0,0,131.18,353.63Z" style="fill:#fafafa"></path><path d="M128.62,368.29a1.11,1.11,0,0,1,.32,0,4,4,0,0,1,.86.31,5.3,5.3,0,0,1,2.35,2.37,5,5,0,0,1,.53,2.29,5.36,5.36,0,0,1-.73,2.6,5.65,5.65,0,0,1-2.13,2.1,5.29,5.29,0,0,1-3.15.62,6,6,0,0,1-3-1.17,5.51,5.51,0,0,1-1.78-2.4,6,6,0,0,1,.28-4.93,4,4,0,0,1,2.6-2.07,2.32,2.32,0,0,1,.92,0c.2.05.3.09.3.11a3.9,3.9,0,0,0-1.18.09,4,4,0,0,0-2.32,2,5.79,5.79,0,0,0-.16,4.58A5,5,0,0,0,124,377a5.51,5.51,0,0,0,2.73,1.06,4.93,4.93,0,0,0,2.85-.54,5.31,5.31,0,0,0,1.95-1.9,4.74,4.74,0,0,0,.28-4.49,5.36,5.36,0,0,0-2.11-2.36C129,368.44,128.61,368.34,128.62,368.29Z" style="fill:#fafafa"></path><path d="M128.5,402.16c0-.05.38.11,1.06.17a4.91,4.91,0,0,0,2.76-.6,4.72,4.72,0,0,0,2.42-3.25,5.83,5.83,0,0,0-1.32-4.8,6.56,6.56,0,0,0-4.54-2.15,7.25,7.25,0,0,0-4.1.9,5.66,5.66,0,0,0-2.06,2c-.35.59-.44,1-.48,1a2.24,2.24,0,0,1,.3-1.06,5.44,5.44,0,0,1,2-2.18,7.48,7.48,0,0,1,4.32-1.06,7,7,0,0,1,4.91,2.3,6.2,6.2,0,0,1,1.39,5.22,5,5,0,0,1-2.72,3.49,4.77,4.77,0,0,1-3,.47,2.7,2.7,0,0,1-.79-.23C128.58,402.23,128.5,402.18,128.5,402.16Z" style="fill:#fafafa"></path><path d="M149,391.65s.25-.19.64-.56a4.44,4.44,0,0,0,1.17-1.91,4.55,4.55,0,0,0-.2-3.24,5.61,5.61,0,0,0-2.9-2.72,6.25,6.25,0,0,0-4-.28,7.32,7.32,0,0,0-2.95,1.57,9.9,9.9,0,0,0-1.9,2.5,2.22,2.22,0,0,1,.26-.83,5.92,5.92,0,0,1,1.39-1.94,7.23,7.23,0,0,1,3.07-1.76,6.55,6.55,0,0,1,4.34.26,6,6,0,0,1,3.13,3,4.74,4.74,0,0,1,.11,3.54,4.22,4.22,0,0,1-1.39,1.95A1.85,1.85,0,0,1,149,391.65Z" style="fill:#fafafa"></path><path d="M171.12,387.1a1.93,1.93,0,0,1,.47.14,6.15,6.15,0,0,1,1.26.62,8.4,8.4,0,0,1,3.25,3.95,7.78,7.78,0,0,1,.54,3.54,8.25,8.25,0,0,1-1.4,3.88,8.52,8.52,0,0,1-3.47,2.95,7.92,7.92,0,0,1-4.85.51c-3.33-.66-6-3.36-6.38-6.36a6,6,0,0,1,1.16-3.95,30.66,30.66,0,0,1,2.15-2.83,8.28,8.28,0,0,1,4.23-2.87,4.49,4.49,0,0,1,1.4-.13,1,1,0,0,1,.48.08,7.24,7.24,0,0,0-1.83.25,8.28,8.28,0,0,0-4,2.91c-.67.82-1.38,1.78-2.07,2.82a5.57,5.57,0,0,0-1,3.67c.32,2.74,2.87,5.28,6,5.9a7.44,7.44,0,0,0,4.54-.47,7.94,7.94,0,0,0,3.28-2.76,7.77,7.77,0,0,0,1.37-3.64,7.55,7.55,0,0,0-.45-3.37,8.57,8.57,0,0,0-3-3.91C171.75,387.35,171.1,387.15,171.12,387.1Z" style="fill:#fafafa"></path><path d="M175.89,368.29s.13,0,.37,0a3.63,3.63,0,0,1,1,.22,5.21,5.21,0,0,1,2.85,2.5,5.7,5.7,0,0,1-.33,5.55,6.66,6.66,0,0,1-6.07,3,6.13,6.13,0,0,1-3.44-1.19,4.34,4.34,0,0,1-1.66-3,8.7,8.7,0,0,1,.22-3.05,6.91,6.91,0,0,1,1.07-2.43,4.39,4.39,0,0,1,3.22-1.95,3.1,3.1,0,0,1,1.05.08c.23.07.34.12.33.14a5.13,5.13,0,0,0-1.35,0,4.33,4.33,0,0,0-2.95,1.95,8.16,8.16,0,0,0-1.11,5.22,3.77,3.77,0,0,0,1.49,2.62,5.71,5.71,0,0,0,3.16,1.08,6.22,6.22,0,0,0,5.63-2.75,5.34,5.34,0,0,0,.41-5.13,5.16,5.16,0,0,0-2.59-2.48A9.66,9.66,0,0,0,175.89,368.29Z" style="fill:#fafafa"></path><path d="M187.33,360.47a7.56,7.56,0,0,1-2.43.35,9.72,9.72,0,0,1-5.74-1.52,6.52,6.52,0,0,1-2.21-2.49,5.59,5.59,0,0,1-.57-2.66,4.66,4.66,0,0,1,.43-1.78c.2-.39.36-.56.39-.55a7.47,7.47,0,0,0-.45,2.33,5.63,5.63,0,0,0,.63,2.44,6.4,6.4,0,0,0,2.08,2.28,10.15,10.15,0,0,0,5.44,1.58C186.39,360.49,187.32,360.38,187.33,360.47Z" style="fill:#fafafa"></path><path d="M196.33,364.34a3.85,3.85,0,0,1,1.24,0,6.66,6.66,0,0,1,3.25,1,4.2,4.2,0,0,1,1.53,1.86,4.78,4.78,0,0,1,.25,2.75,5.88,5.88,0,0,1-4.29,4.31,6,6,0,0,1-3.26,0,5.5,5.5,0,0,1-2.53-1.69,5,5,0,0,1-1-4.88,4.83,4.83,0,0,1,2.15-2.62,3.57,3.57,0,0,1,.86-.35c.21-.05.32-.06.33,0s-.43.14-1.08.57a4.82,4.82,0,0,0-1.92,2.56,4.65,4.65,0,0,0,1,4.44,5,5,0,0,0,2.32,1.52,5.48,5.48,0,0,0,3,0,5.41,5.41,0,0,0,3.95-3.9,4.43,4.43,0,0,0-.18-2.49,3.9,3.9,0,0,0-1.34-1.72,7,7,0,0,0-3.06-1.12A8.81,8.81,0,0,1,196.33,364.34Z" style="fill:#fafafa"></path><path d="M197.29,396.19a4.34,4.34,0,0,1,1-.21,14.37,14.37,0,0,0,2.69-.62,5.3,5.3,0,0,0,3-2.45,4.82,4.82,0,0,0-.49-4.58,5.71,5.71,0,0,0-3.94-2.58,5,5,0,0,0-3.71,1.07,5.28,5.28,0,0,0-1.62,2.14c-.23.6-.27,1-.32,1a2.2,2.2,0,0,1,.13-1,4.91,4.91,0,0,1,1.57-2.36,5.24,5.24,0,0,1,4-1.26,6.05,6.05,0,0,1,4.31,2.76,5.24,5.24,0,0,1,.49,5.08,5.51,5.51,0,0,1-3.32,2.59,11.75,11.75,0,0,1-2.78.48A3.94,3.94,0,0,1,197.29,396.19Z" style="fill:#fafafa"></path><path d="M219.75,385.79a2.66,2.66,0,0,1-.95.09,9.07,9.07,0,0,1-2.57-.41,9.69,9.69,0,0,1-3.4-1.88,9.79,9.79,0,0,1-2.73-3.89,8.93,8.93,0,0,1-.53-4.73,6.13,6.13,0,0,1,1.78-3.46,4.9,4.9,0,0,1,2.29-1.26,2.15,2.15,0,0,1,1-.06,7.51,7.51,0,0,1-.9.25,5.23,5.23,0,0,0-2.09,1.33,5.91,5.91,0,0,0-1.56,3.28,8.68,8.68,0,0,0,.54,4.46,9.69,9.69,0,0,0,2.56,3.72,9.9,9.9,0,0,0,3.19,1.89A15.57,15.57,0,0,0,219.75,385.79Z" style="fill:#fafafa"></path><path d="M96.42,363.77a3.57,3.57,0,0,1,.48.9,13.57,13.57,0,0,1,.85,2.65,14.12,14.12,0,0,1,.28,4.14,12.1,12.1,0,0,1-1.44,4.88,10.61,10.61,0,0,1-3.51,3.7,9.82,9.82,0,0,1-3.88,1.49,7.89,7.89,0,0,1-2.8,0,3.2,3.2,0,0,1-1-.31,12,12,0,0,0,3.71,0,10.48,10.48,0,0,0,7-5.08,13.35,13.35,0,0,0,1.26-8.7C97,365.12,96.32,363.81,96.42,363.77Z" style="fill:#fafafa"></path><path d="M106.18,385.58s.26-.12.75-.26a7.65,7.65,0,0,0,1.94-.79,2.65,2.65,0,0,0,1.37-2.43,3.19,3.19,0,0,0-2.32-2.5,5.63,5.63,0,0,0-3.62.5,7.07,7.07,0,0,0-2.51,1.76,2.8,2.8,0,0,0-.63,1.89c0,.49.19.73.15.75s-.24-.2-.35-.72a2.83,2.83,0,0,1,.54-2.14,6.82,6.82,0,0,1,2.6-2,5.86,5.86,0,0,1,4-.57,3.59,3.59,0,0,1,2.66,2.95,2.61,2.61,0,0,1-.49,1.76,3.48,3.48,0,0,1-1.16,1,6.43,6.43,0,0,1-2.09.68A2.62,2.62,0,0,1,106.18,385.58Z" style="fill:#fafafa"></path><g style="opacity:0.30000000000000004"><path d="M188.52,403.44a5.44,5.44,0,0,0-3.23-.93c-9.12-.54-18.26.71-27.4.91s-18.62-.73-26.57-5.26c-2.5-1.42-4.91-3-7.48-4.26-4.49-2.25-10.84-1.27-14.57,1.59l-.64,11.19c25.47.2,52.89-.11,78.36.08a3,3,0,0,0,1.74-.36C189.65,405.73,189.39,404.17,188.52,403.44Z"></path></g><path d="M115.58,378.16c-.09,0,.2-1.3.47-3.39a42.61,42.61,0,0,0-1-16.32c-.52-2-1-3.28-.88-3.31a2.87,2.87,0,0,1,.41.83c.23.55.52,1.36.83,2.38a36.46,36.46,0,0,1,1.45,8.18,35.66,35.66,0,0,1-.45,8.3c-.18,1-.37,1.88-.53,2.46A3.3,3.3,0,0,1,115.58,378.16Z" style="fill:#263238"></path><path d="M112.33,416.35l-33,32.38H155.6s4-6.46,11.4-5.92,40.59,9.74,50.59,8.1L208.84,415s-26.42-7.66-41.46-4.75a21.7,21.7,0,0,0-11,5.79h0Z" style="fill:#fafafa"></path><path d="M112.33,416.35l.46,0,1.38,0,5.37-.07,20.3-.21,14.39-.13,2,0h.22c-.24.1,0,0-.1,0l.19-.17.36-.35.77-.67a22,22,0,0,1,3.44-2.35,21.35,21.35,0,0,1,8.32-2.6,51.69,51.69,0,0,1,9.27-.27,97.62,97.62,0,0,1,9.73,1,167.64,167.64,0,0,1,20.51,4.33l.13,0,0,.14c2.73,11.15,5.69,23.27,8.77,35.89l.07.29-.28,0a24,24,0,0,1-3.17.18l-1.59,0-1.59-.12c-1.06-.07-2.13-.19-3.19-.33s-2.14-.26-3.21-.43c-4.28-.65-8.6-1.46-12.94-2.36-6.59-1.34-13.06-2.84-19.43-4.11-3.17-.56-6.39-1.41-9.42-.5a13.51,13.51,0,0,0-7.27,5.4l-.09.12h-.13l-76.31-.07h-.45l.32-.31,24.28-23.67,6.58-6.39,1.72-1.64c.38-.37.59-.55.59-.55l-.57.6-1.7,1.69-6.53,6.47L79.41,448.86l-.12-.31,76.31-.07-.21.12A14,14,0,0,1,163,443a12,12,0,0,1,4.85-.31c1.62.18,3.21.5,4.81.8,6.39,1.27,12.85,2.77,19.44,4.11,4.33.89,8.65,1.71,12.91,2.35,1.06.18,2.13.32,3.19.44s2.12.26,3.17.32l1.58.13,1.56,0a22.6,22.6,0,0,0,3.09-.16l-.21.31c-3.07-12.62-6-24.74-8.73-35.9l.16.17a168.14,168.14,0,0,0-20.43-4.35c-3.3-.48-6.53-.84-9.69-1a51.85,51.85,0,0,0-9.2.25,21,21,0,0,0-8.19,2.53,21.83,21.83,0,0,0-3.38,2.3c-.27.21-.51.44-.76.66l-.37.34-.18.17c-.06,0,.11,0-.14.07h-2.19l-14.36.07-20.29.07H112.8Z" style="fill:#263238"></path><path d="M155.6,448.73c-.14,0,0-7.36.23-16.42s.61-16.42.76-16.41,0,7.35-.24,16.42S155.74,448.73,155.6,448.73Z" style="fill:#263238"></path><path d="M147.54,441.79a2.15,2.15,0,0,1-.52,0l-1.5.05L140,442l-18.14.05-18.14-.08-5.5-.07-1.49,0a3.36,3.36,0,0,1-.52,0,10.14,10.14,0,0,1,2-.14c1.3,0,3.18-.07,5.5-.1,4.64-.06,11.06-.08,18.14-.08s13.5,0,18.15.11l5.49.09,1.5.06A1.65,1.65,0,0,1,147.54,441.79Z" style="fill:#263238"></path><path d="M148.44,437.25a1.91,1.91,0,0,1-.49.05l-1.42,0h-5.2l-17.16-.18L107,436.83l-5.2-.14-1.41-.05a3.57,3.57,0,0,1-.49,0,9.09,9.09,0,0,1,1.9-.11c1.23,0,3,0,5.2,0,4.4,0,10.46.06,17.17.16s12.76.22,17.15.34l5.2.16,1.42.07A1.61,1.61,0,0,1,148.44,437.25Z" style="fill:#263238"></path><path d="M210.93,442.34a2.06,2.06,0,0,1-.53,0h-1.52c-1.32,0-3.23-.09-5.58-.28a94.9,94.9,0,0,1-18.11-3.31c-3.47-1-6.68-2.19-9.65-3.07a29.88,29.88,0,0,0-8.06-1.41A17.59,17.59,0,0,0,162,435c-1.25.4-1.9.74-1.92.7s.15-.12.46-.28a11.2,11.2,0,0,1,1.4-.61,16.44,16.44,0,0,1,5.52-.89,29.36,29.36,0,0,1,8.19,1.32c3,.86,6.22,2.07,9.67,3a104.08,104.08,0,0,0,18,3.45c2.33.23,4.23.35,5.55.43l1.51.09A2,2,0,0,1,210.93,442.34Z" style="fill:#263238"></path><path d="M211,436.09a1.56,1.56,0,0,1-.53,0c-.34,0-.85,0-1.51,0-1.32,0-3.23-.08-5.58-.27a94.76,94.76,0,0,1-18.11-3.31c-3.47-1-6.68-2.19-9.65-3.07a30.32,30.32,0,0,0-8.07-1.42,17.47,17.47,0,0,0-5.45.72c-1.25.39-1.9.74-1.92.69a2.27,2.27,0,0,1,.45-.27,11.05,11.05,0,0,1,1.4-.61,16.3,16.3,0,0,1,5.53-.89A28.75,28.75,0,0,1,175.7,429c3,.86,6.21,2.07,9.66,3a105.07,105.07,0,0,0,18,3.44c2.34.24,4.24.36,5.55.44l1.52.09A2.41,2.41,0,0,1,211,436.09Z" style="fill:#263238"></path><path d="M211,429.85a2,2,0,0,1-.53,0c-.35,0-.86,0-1.52,0-1.32,0-3.22-.08-5.57-.28a94.5,94.5,0,0,1-18.11-3.3c-3.48-1-6.69-2.2-9.66-3.07a29.48,29.48,0,0,0-8.06-1.42,17.24,17.24,0,0,0-5.46.72c-1.25.39-1.89.73-1.91.69s.14-.11.45-.28a12.74,12.74,0,0,1,1.4-.61,16.7,16.7,0,0,1,5.52-.89,29.16,29.16,0,0,1,8.2,1.33c3,.86,6.21,2.06,9.66,3a105.07,105.07,0,0,0,18,3.44c2.34.24,4.24.35,5.55.44l1.51.09A1.84,1.84,0,0,1,211,429.85Z" style="fill:#263238"></path><path d="M198.81,419.42s-.13.06-.38.11a10.19,10.19,0,0,1-1.11.19,24.87,24.87,0,0,1-4.12.18c-3.51-.06-8.25-1-13.4-2.22a70.55,70.55,0,0,0-7.33-1.26,32,32,0,0,0-6.05-.11,31.68,31.68,0,0,0-5.47,1.08s.11-.08.35-.18.58-.26,1-.4a20,20,0,0,1,4-.87,29.82,29.82,0,0,1,6.13,0,62.72,62.72,0,0,1,7.39,1.22c5.17,1.17,9.85,2.21,13.3,2.36a31.83,31.83,0,0,0,4.09,0A12.72,12.72,0,0,1,198.81,419.42Z" style="fill:#263238"></path><path d="M249.59,402.26c-2.81-2.95-23.89-20.4-23.89-20.4l-16.19,19.22,9.94,5.34c-.8.25-14.83,6.31-19,8.15-2.28-1.63-7.23-5-9.06-5.25-2.42-.29-9.26,0-9.26,0s-3.27,3.84-2.56,4.27c0,0-4.27,3.13-3.7,5.12l.57,2a1.76,1.76,0,0,0-2.14,1.93c0,2.34-.28,3.33,1,4a4.85,4.85,0,0,0,1.57,4.13,31.9,31.9,0,0,0,3.84,3.28,2.07,2.07,0,0,0,.85,3.27,21.15,21.15,0,0,0,7.69,2c1.16,0,10.7-3.2,14.22-4.39,0,0,44.74-12.43,47.62-16.89C253.56,414.21,253.56,406.42,249.59,402.26Z" style="fill:#ffbe9d"></path><path d="M241.62,400.85a21.64,21.64,0,0,0-6.45-.39,26.94,26.94,0,0,0-6.78,1.75,76.08,76.08,0,0,0-7.82,3.69,149.55,149.55,0,0,1-14.22,6.82c-1.89.74-3.44,1.26-4.52,1.57-.54.17-1,.27-1.26.34a1.37,1.37,0,0,1-.45.08,12.36,12.36,0,0,1,1.64-.61c1.07-.37,2.59-1,4.45-1.73,3.72-1.53,8.68-4.06,14.12-6.93a71.09,71.09,0,0,1,7.89-3.68,26.07,26.07,0,0,1,6.92-1.67,16.06,16.06,0,0,1,4.79.27,9,9,0,0,1,1.26.33A1.22,1.22,0,0,1,241.62,400.85Z" style="fill:#eb996e"></path><path d="M189.92,413.19c0,.07-.57-.24-1.5-.51a9.9,9.9,0,0,0-3.72-.27,24.69,24.69,0,0,0-3.73.78,5.39,5.39,0,0,1-1.57.34,4.56,4.56,0,0,1,1.46-.69,15.72,15.72,0,0,1,3.78-.94,8.54,8.54,0,0,1,3.9.43C189.49,412.7,190,413.14,189.92,413.19Z" style="fill:#eb996e"></path><path d="M184.32,420.85a11.82,11.82,0,0,1-7.67-.24c0-.14,1.73.19,3.83.24S184.29,420.69,184.32,420.85Z" style="fill:#eb996e"></path><path d="M185.29,427.34a11.12,11.12,0,0,1-10.24-.91,27.82,27.82,0,0,0,5.06,1.19A28.65,28.65,0,0,0,185.29,427.34Z" style="fill:#eb996e"></path><path d="M189,432.91a7.66,7.66,0,0,1-4,1.4,7.81,7.81,0,0,1-4.22-.42c0-.16,1.89.19,4.15-.1S188.92,432.77,189,432.91Z" style="fill:#eb996e"></path><path d="M110.14,396.13l25.66,35.52,7.77,3.13L142.28,426l-25-35.26a4.49,4.49,0,0,0-3.88-1.93h-.11A4.55,4.55,0,0,0,110.14,396.13Z" style="fill:#455a64"></path><path d="M110.23,396.31c-.06,0,.11-.55.59-1.29a8.59,8.59,0,0,1,2.47-2.4,8.73,8.73,0,0,1,3.22-1.22,2.89,2.89,0,0,1,1.42,0,15.89,15.89,0,0,0-4.36,1.65A15.35,15.35,0,0,0,110.23,396.31Z" style="fill:#263238"></path><path d="M135.8,431.65s-.14-.09-.27-.33a2.19,2.19,0,0,1-.27-1.13,1.16,1.16,0,0,1,.1-.42l.16-.36a6.78,6.78,0,0,1,.41-.8,5.45,5.45,0,0,1,1.52-1.42,16.37,16.37,0,0,1,1.75-1,4.63,4.63,0,0,1,1.64-.44c1-.06,1.53.29,1.5.34a10.94,10.94,0,0,0-1.46,0,4.78,4.78,0,0,0-1.46.5c-.52.29-1.11.63-1.68,1a5.84,5.84,0,0,0-1.41,1.26c-.16.24-.29.49-.42.72l-.19.35a.94.94,0,0,0-.1.28A6.86,6.86,0,0,0,135.8,431.65Z" style="fill:#263238"></path><path d="M137.15,428c-.12.09-5.69-7.56-12.45-17.06s-12.15-17.29-12-17.38,5.69,7.56,12.45,17.07S137.27,427.92,137.15,428Z" style="fill:#263238"></path><path d="M140.2,425.38c-.12.08-5.61-7.37-12.27-16.63s-12-16.85-11.85-16.93,5.61,7.36,12.27,16.62S140.31,425.29,140.2,425.38Z" style="fill:#263238"></path><path d="M143,430.88a2.48,2.48,0,0,0-2.22.42,2.42,2.42,0,0,0-.82,2.05l3.61,1.43Z" style="fill:#263238"></path><path d="M135.84,418.41c2.36-1.43,0-6.57,0-6.57s-11.43-6.72-13.1-7.07c-.94-.2-7.29.45-12.7,1.06L91.54,398.1l7-4.5L78.42,374.88s-18,13.2-23.4,18.59c-4.06,4.07-3.33,12.07-3.33,12.07,2.73,7.21,45,17,48,17.67l15.66,9.25s6.69.88,9.48,1.23,3.2-3.56,3.2-3.56a4.24,4.24,0,0,0,4.86-4.44,3.44,3.44,0,0,0,4.88-1.61C139.46,420.71,135.84,418.41,135.84,418.41Z" style="fill:#ffbe9d"></path><path d="M91.44,398.33c-.07.08-1.11-1-3.06-2.32a25.38,25.38,0,0,0-3.59-2.07,28.47,28.47,0,0,0-4.76-1.7,27.92,27.92,0,0,0-5-.75,25.77,25.77,0,0,0-4.14.12c-2.35.26-3.76.7-3.79.61a3.39,3.39,0,0,1,1-.37,10.31,10.31,0,0,1,1.18-.31c.47-.09,1-.23,1.59-.3A23.5,23.5,0,0,1,75,391a26.15,26.15,0,0,1,5.11.72A26.47,26.47,0,0,1,85,393.51a23,23,0,0,1,3.6,2.2c.49.33.89.71,1.26,1a9.5,9.5,0,0,1,.89.83A4.48,4.48,0,0,1,91.44,398.33Z" style="fill:#eb996e"></path><path d="M133.35,425.72a31.38,31.38,0,0,0-3.24-2.26,31.75,31.75,0,0,0-3.72-1.36,7.93,7.93,0,0,1,7,3.62Z" style="fill:#eb996e"></path><path d="M137.17,419.71a45.6,45.6,0,0,0-4.83-2.56,49.51,49.51,0,0,0-5.27-1.45,13.82,13.82,0,0,1,10.1,4Z" style="fill:#eb996e"></path><path d="M128.15,429.69c-.1.12-1.32-.9-3-1.79s-3.24-1.34-3.21-1.49a9.36,9.36,0,0,1,6.25,3.28Z" style="fill:#eb996e"></path><path d="M212,320.8c.21-3.86,3.53-7.23,3.05-11.06s-4.45-6.1-6.59-9.31c-2.59-3.9-2.35-8.94-3.12-13.55a29.36,29.36,0,0,0-7.63-15.07,20.72,20.72,0,0,1,2-1.66c2.09-1.56,4.38-3.14,5.32-5.57a7.6,7.6,0,0,0-1.1-7,9.17,9.17,0,0,0-16.52,6.86,28.9,28.9,0,0,0-6-1.89,30.73,30.73,0,0,0-4.88-3.48A13.22,13.22,0,0,0,161,261.69c-1.07,4.46-2.25,8.91-3.35,13.38l-38.94,25.39c-3.86-1.43-8.27.77-10.86,4s-3.85,7.24-5.45,11S98.55,323.1,94.9,325c-2,1.05-4.69,1.79-5.21,4a4,4,0,0,0,1.8,3.92,11.6,11.6,0,0,0,4.27,1.55l15.35,3.38a21.66,21.66,0,0,1,6.94-4.32c-1.12,1.6-.36,4,1.13,5.23a11.86,11.86,0,0,0,5.41,2.12l33.72,7.17c6.84,1.45,14.33,2.82,20.52-.43,2.65-1.39,4.85-3.56,7.57-4.79,3.35-1.51,7.16-1.49,10.82-1.35s7.43.37,10.91-.78,6.66-4.07,6.92-7.73C215.34,328.77,211.81,325,212,320.8Z" style="fill:#263238"></path><path d="M197,272a33.9,33.9,0,0,0-4.29-4.33,32.06,32.06,0,0,0-5.29-3,12,12,0,0,1,5.61,2.61A12.17,12.17,0,0,1,197,272Z" style="fill:#002060"></path><path d="M198.22,254.43s.24,0,.56.29a3.18,3.18,0,0,1,1,1.42,5.16,5.16,0,0,1,.21,2.56,15.09,15.09,0,0,1-.79,3,17.08,17.08,0,0,1-2.79,4.85,6.26,6.26,0,0,1-1.66,1.61,26.41,26.41,0,0,0,4-6.64c.73-2,1.17-3.95.72-5.25A4.32,4.32,0,0,0,198.22,254.43Z" style="fill:#455a64"></path><path d="M190.49,293.4c0-.16,0-.32,0-.48-.58-16.42-14.29-29.57-30.71-29-.79,0-1.61.07-2.43.13a38.52,38.52,0,0,0-3.85.49c-14.19,2.6-24.21,15.45-24,29.88.15,11.75.46,27.4,1.12,32,1.1,7.72.94,10.48.94,10.48l.43,18a19.82,19.82,0,0,0,19.34,19.35h0a19.82,19.82,0,0,0,20.3-19.79V345.2c12.23-1.58,17.87-13.38,18.67-27.49C190.69,310.19,191,309.62,190.49,293.4Z" style="fill:#ffbe9d"></path><path d="M130.26,304.53c-.33-.14-13.14-4-12.82,9.12s13.41,10.07,13.43,9.7S130.26,304.53,130.26,304.53Z" style="fill:#ffbe9d"></path><path d="M126.74,318.48c-.06,0-.22.17-.61.35a2.27,2.27,0,0,1-1.7.08c-1.4-.47-2.62-2.64-2.74-5a7.58,7.58,0,0,1,.56-3.29,2.63,2.63,0,0,1,1.68-1.79,1.17,1.17,0,0,1,1.36.59c.18.36.11.63.18.65s.27-.23.15-.77a1.48,1.48,0,0,0-.53-.81,1.78,1.78,0,0,0-1.27-.3,3.23,3.23,0,0,0-2.34,2.09,7.8,7.8,0,0,0-.7,3.67c.15,2.64,1.56,5.08,3.47,5.58a2.43,2.43,0,0,0,2.08-.4C126.73,318.8,126.79,318.5,126.74,318.48Z" style="fill:#eb996e"></path><path d="M184,300.78c-.36.37-2.51-1.25-5.58-1.26s-5.33,1.5-5.66,1.12c-.16-.17.2-.83,1.19-1.54a7.72,7.72,0,0,1,4.54-1.36,7.46,7.46,0,0,1,4.43,1.47C183.9,299.94,184.22,300.61,184,300.78Z" style="fill:#263238"></path><path d="M156.19,301.75c-.36.37-2.51-1.25-5.58-1.26s-5.33,1.5-5.66,1.12c-.16-.16.2-.83,1.19-1.54a7.87,7.87,0,0,1,4.54-1.36,7.53,7.53,0,0,1,4.43,1.47C156.05,300.91,156.37,301.59,156.19,301.75Z" style="fill:#263238"></path><path d="M154.08,293.39c-.25.78-2.82.8-5.65,1.52s-5.08,1.77-5.76,1.21c-.31-.28-.1-1,.73-1.83a8.92,8.92,0,0,1,4.14-2.16,9.91,9.91,0,0,1,4.84,0C153.58,292.49,154.19,293,154.08,293.39Z" style="fill:#263238"></path><path d="M183.29,291.61c-.68.9-3.63,1.49-6.59,1.3s-4.82-1.07-4.14-2,3.63-1.49,6.59-1.3S184,290.7,183.29,291.61Z" style="fill:#263238"></path><path d="M162.17,325c.05.18-.37.51-1.18.62a4.34,4.34,0,0,1-4.69-3.56c-.11-.81.09-1.3.28-1.3.39,0,.71,1.73,2.23,2.87S162.08,324.65,162.17,325Z" style="fill:#263238"></path><path d="M171.58,345.2s-15.7.25-19.41-2.46c0,0,2.78,7.61,19.41,6.8Z" style="fill:#eb996e"></path><path d="M166.22,307.91c.19-.05.55.62,1,1.76.22.56.46,1.25.7,2q.16.58.36,1.2a5.48,5.48,0,0,1,.31,1.47,2.32,2.32,0,0,1-.61,1.75,2.64,2.64,0,0,1-1.49.74,3.08,3.08,0,0,1-1.4-.12,3.62,3.62,0,0,1-1-.54c-1-.84-1.37-1.54-1.26-1.66s.79.32,1.78.8a2.37,2.37,0,0,0,1.64.23,1.34,1.34,0,0,0,.71-.4,1,1,0,0,0,.21-.74,5.18,5.18,0,0,0-.23-1.15c-.1-.42-.19-.83-.29-1.23-.17-.78-.3-1.5-.4-2.1C166.05,308.73,166,308,166.22,307.91Z" style="fill:#263238"></path><path d="M145.48,315.41c-.12,0-.17-.33-.1-.69s.23-.61.36-.59.18.33.1.69S145.61,315.43,145.48,315.41Z" style="fill:#eb996e"></path><path d="M151,314.26c-.12,0-.28-.09-.35-.3s0-.42.1-.46.28.09.35.3S151.09,314.22,151,314.26Z" style="fill:#eb996e"></path><path d="M148.19,317.57c-.13,0-.27-.26-.3-.61s0-.65.17-.66.26.26.3.61S148.32,317.56,148.19,317.57Z" style="fill:#eb996e"></path><path d="M141.27,316.94c-.12,0-.14-.36,0-.71s.29-.61.42-.57.14.36,0,.71S141.4,317,141.27,316.94Z" style="fill:#eb996e"></path><path d="M177.74,314.13c-.13,0-.26-.23-.29-.54s0-.59.17-.6.26.23.3.54S177.87,314.12,177.74,314.13Z" style="fill:#eb996e"></path><path d="M182.87,314c-.13,0-.24-.28-.24-.63s.11-.64.24-.64.24.28.24.64S183,314,182.87,314Z" style="fill:#eb996e"></path><path d="M187.11,313.74c-.13,0-.29-.24-.36-.59s0-.66.11-.68.28.24.36.59S187.24,313.72,187.11,313.74Z" style="fill:#eb996e"></path><path d="M180.45,318.34c-.13,0-.15-.35,0-.7s.29-.61.42-.57.14.35,0,.7S180.57,318.38,180.45,318.34Z" style="fill:#eb996e"></path><path d="M185.27,317.71c-.13,0-.26-.2-.3-.48s0-.53.17-.54.27.2.3.48S185.4,317.69,185.27,317.71Z" style="fill:#eb996e"></path><path d="M201.26,336.26a9,9,0,0,0,3.12-2,10.21,10.21,0,0,0,2.3-3.7,12.65,12.65,0,0,0,.73-5.71,22,22,0,0,0-1.93-6.76c-1-2.34-2.39-4.71-3.73-7.28a30.48,30.48,0,0,1-3.19-8.5,16.32,16.32,0,0,1-.13-4.84c.2-1.63.56-3.25.9-4.87a26.07,26.07,0,0,0,.66-4.83,10.43,10.43,0,0,0-.86-4.55,15.93,15.93,0,0,0-5.94-6.48c-2.38-1.58-4.85-2.8-7.06-4.11s-4.25-2.55-6.08-3.74c-3.66-2.39-6.51-4.48-8.44-6-1-.74-1.7-1.34-2.2-1.75l-.55-.47c-.13-.11-.19-.17-.18-.17s.08,0,.21.13l.59.43,2.26,1.67c2,1.44,4.84,3.49,8.51,5.83,1.83,1.17,3.87,2.41,6.1,3.68s4.68,2.49,7.11,4.09A16.33,16.33,0,0,1,199.6,283a11.06,11.06,0,0,1,.91,4.77,26.57,26.57,0,0,1-.67,4.93c-.34,1.63-.7,3.23-.89,4.82a15.65,15.65,0,0,0,.11,4.69,30,30,0,0,0,3.12,8.37c1.31,2.56,2.68,4.95,3.69,7.32a22.17,22.17,0,0,1,1.91,6.91,13,13,0,0,1-.82,5.85,10.49,10.49,0,0,1-2.43,3.74,8.28,8.28,0,0,1-2.34,1.58,5.86,5.86,0,0,1-.69.24Z" style="fill:#455a64"></path><path d="M191.69,285.83a37.79,37.79,0,0,0-15.78-20.41l-9.24-6.13a20.69,20.69,0,0,0-35.79,3.12c-.7,1.52-1.24,3.16-1.95,4.68a13.54,13.54,0,0,0-1.93-9.64c-2.43-3.59-7.18-5.65-11.33-4.42a10.07,10.07,0,0,0-6.83,9.69,11.65,11.65,0,0,0,6.8,10,12.5,12.5,0,0,0,2.6.83,19.14,19.14,0,0,0-6.09,1.65,10.05,10.05,0,0,0-5.19,10c.29,2.16,1.27,4.45.32,6.41-.74,1.51-2.4,2.27-3.76,3.26A11.77,11.77,0,0,0,99,306.13a35.18,35.18,0,0,0-5.24,9.36c-3.21,8.42,3.11,8.81,5.08,10.64l11.59-12a14.63,14.63,0,0,1,4.79-1,58.65,58.65,0,0,1,7.23.22,24.17,24.17,0,0,0,8.38-.7,11.11,11.11,0,0,0,4.05-2.21,12.28,12.28,0,0,0,2.88-3.86,37,37,0,0,0,2.63-9.6c.64-3.29,1.48-6.54,3.28-9.09a9.92,9.92,0,0,1,3.37-3,14.56,14.56,0,0,1,4.17-1.36c2.85-.53,5.67-.65,8.25-1.32a11,11,0,0,0,6.18-3.89,14.4,14.4,0,0,0,2.44-5.53,28.72,28.72,0,0,0,.62-4.51c0-.53.06-1,.07-1.43a61.46,61.46,0,0,0,21.05,20c.64.37,1.65.63,2,0A1.39,1.39,0,0,0,191.69,285.83Zm-23.32-17.58a30.6,30.6,0,0,1-.74,4.43,13.9,13.9,0,0,1-2.45,5.31,10.39,10.39,0,0,1-5.92,3.62c-2.5.63-5.3.73-8.22,1.24a15.06,15.06,0,0,0-4.38,1.42,10.59,10.59,0,0,0-3.62,3.18c-1.92,2.71-2.77,6.05-3.42,9.37a36.56,36.56,0,0,1-2.56,9.43,11.58,11.58,0,0,1-2.69,3.64,10.46,10.46,0,0,1-3.8,2.1,23.8,23.8,0,0,1-8.14.73,60.34,60.34,0,0,0-7.29-.13,15.69,15.69,0,0,0-4,.78l.75-.6a22.56,22.56,0,0,1,14.94-4.59,5.9,5.9,0,0,0,3.45-1h0c4-1.09,6.84-6.29,8.44-10.45,1.37-3.56,1.13-7.81,3.42-10.84,1.67-2.2,4.38-3.29,7-3.88s5.41-.78,8-1.63a17,17,0,0,0,11-12.18,7.47,7.47,0,0,0,.19-2c.06.09.13.18.18.27C168.48,267,168.43,267.6,168.37,268.25Z" style="fill:#263238"></path><path d="M98.76,325.91a2.08,2.08,0,0,1-.18-.22c-.11-.15-.29-.37-.48-.68a14.13,14.13,0,0,1-1.46-2.86,16.33,16.33,0,0,1-1-5,15.06,15.06,0,0,1,1.24-6.61,15.92,15.92,0,0,1,5.05-6.37c2.36-1.84,5.47-2.78,8.66-3.48s6.67-1.32,9.57-3.34a11.35,11.35,0,0,0,3.45-4,27,27,0,0,0,2-5.16c1.11-3.59,1.88-7.33,4-10.35a11.06,11.06,0,0,1,4-3.53,15.71,15.71,0,0,1,4.89-1.43c3.29-.44,6.42-.33,9.3-.73a22.2,22.2,0,0,0,7.61-2.47,23.21,23.21,0,0,0,10.11-10.57c.15-.3.26-.55.36-.75a2.67,2.67,0,0,1,.13-.25,17.44,17.44,0,0,1-1.88,3.89,23.73,23.73,0,0,1-8.54,8,22.72,22.72,0,0,1-7.73,2.57c-2.92.42-6.07.33-9.29.78a15,15,0,0,0-4.74,1.4,10.74,10.74,0,0,0-3.8,3.37c-2,2.9-2.79,6.6-3.9,10.21a28.23,28.23,0,0,1-2.08,5.26,11.84,11.84,0,0,1-3.62,4.16c-3,2.11-6.59,2.67-9.75,3.4s-6.21,1.58-8.52,3.35a15.8,15.8,0,0,0-5,6.18,15,15,0,0,0-1.28,6.45,15.93,15.93,0,0,0,.91,4.92A20.06,20.06,0,0,0,98.76,325.91Z" style="fill:#455a64"></path><path d="M174.83,306.07a2.64,2.64,0,0,0,2.32,2.85,2.52,2.52,0,0,0,2.89-2.15,2.64,2.64,0,0,0-2.31-2.85A2.53,2.53,0,0,0,174.83,306.07Z" style="fill:#263238"></path><path d="M148,306.07a2.64,2.64,0,0,0,2.32,2.85,2.52,2.52,0,0,0,2.89-2.15,2.64,2.64,0,0,0-2.31-2.85A2.53,2.53,0,0,0,148,306.07Z" style="fill:#263238"></path><path d="M129.4,265a5.4,5.4,0,0,1-.63,2.21,11.07,11.07,0,0,1-3.5,4.3,11.22,11.22,0,0,1-5.15,2.07,5.58,5.58,0,0,1-2.3-.05c0-.09.88-.06,2.24-.32a12.33,12.33,0,0,0,4.9-2.11,12.48,12.48,0,0,0,3.48-4.05C129.09,265.8,129.32,265,129.4,265Z" style="fill:#002060"></path><path d="M126.38,270.21a3,3,0,0,1-.92,0,11.84,11.84,0,0,1-2.43-.59,13.46,13.46,0,0,1-9-12.72,11.4,11.4,0,0,1,.25-2.48,2.82,2.82,0,0,1,.27-.88c.1,0-.24,1.29-.15,3.35a13.83,13.83,0,0,0,8.78,12.39C125.08,270,126.39,270.11,126.38,270.21Z" style="fill:#455a64"></path><path d="M165.29,258.65s-.39-.49-1.23-1.18a9,9,0,0,0-4.17-1.82,11.8,11.8,0,0,0-6.67.87,27,27,0,0,0-7,4.62c-2.27,2-4.37,3.95-6.53,5.47a18,18,0,0,1-6.28,3,11.4,11.4,0,0,1-4.7.21,7.45,7.45,0,0,1-1.24-.33c-.28-.1-.42-.16-.41-.18s.59.16,1.68.31a12.06,12.06,0,0,0,4.57-.36,18.13,18.13,0,0,0,6.1-3c2.11-1.52,4.18-3.5,6.47-5.48a26.84,26.84,0,0,1,7.15-4.67,12,12,0,0,1,6.91-.78,8.76,8.76,0,0,1,4.24,2,5.61,5.61,0,0,1,.87.95C165.23,258.5,165.31,258.63,165.29,258.65Z" style="fill:#455a64"></path><path d="M168.05,259.52a10.18,10.18,0,0,1,.4.94,17.15,17.15,0,0,0,1.38,2.55,27.51,27.51,0,0,0,7.68,7.38c1.86,1.29,4,2.59,6.21,4.07a36.31,36.31,0,0,1,6.65,5.41,17,17,0,0,1,4.47,8.31c.62,3.31-.18,6.77-1.24,10.06-.53,1.66-1.14,3.26-1.52,4.88a9.69,9.69,0,0,0-.07,4.81,13.28,13.28,0,0,0,2.21,4.15c.92,1.26,1.9,2.46,2.71,3.74a13.38,13.38,0,0,1,2,8.28,18.54,18.54,0,0,1-2,7.18,33.9,33.9,0,0,1-6.58,8.52c-.91.89-1.64,1.56-2.14,2l-.57.51q-.19.17-.21.15a1.73,1.73,0,0,1,.17-.19l.54-.54,2.06-2.07a35.24,35.24,0,0,0,6.4-8.54,18.39,18.39,0,0,0,1.93-7.05,13,13,0,0,0-2-8c-.8-1.25-1.78-2.43-2.72-3.71a13.76,13.76,0,0,1-2.29-4.3,10.2,10.2,0,0,1,.06-5.06c.39-1.68,1-3.28,1.52-4.93,1.06-3.26,1.83-6.63,1.24-9.81a16.61,16.61,0,0,0-4.33-8.08,35.71,35.71,0,0,0-6.53-5.37c-2.21-1.49-4.32-2.81-6.18-4.13a26.91,26.91,0,0,1-7.64-7.57,15.27,15.27,0,0,1-1.31-2.62c-.12-.32-.18-.57-.24-.73A.8.8,0,0,1,168.05,259.52Z" style="fill:#455a64"></path></g><g id="freepik--Pencil--inject-90"><path d="M241.84,449.18l39.21,4.57,6.82-3.26L281.25,446l-38.65-4.85a4,4,0,0,0-3.64,1.4l-.06.08A4.1,4.1,0,0,0,241.84,449.18Z" style="fill:#002060"></path><path d="M242,449.23c-.06,0-.31-.41-.52-1.18a7.64,7.64,0,0,1-.09-3.11,7.45,7.45,0,0,1,1.15-2.88c.46-.66.85-1,.89-.93a15.26,15.26,0,0,0-1.53,3.9A14.9,14.9,0,0,0,242,449.23Z" style="fill:#263238"></path><path d="M281.05,453.75s-.59.11-1.31-.52a1.29,1.29,0,0,1-.22-.32l-.14-.33a6.06,6.06,0,0,1-.28-.76,4.75,4.75,0,0,1,0-1.88,11.87,11.87,0,0,1,.4-1.79,4,4,0,0,1,.71-1.36c.56-.7,1.13-.84,1.15-.79s-.42.33-.86,1a4.61,4.61,0,0,0-.54,1.28c-.13.52-.26,1.12-.35,1.73a5.35,5.35,0,0,0,0,1.69c.06.25.14.49.22.72l.12.34a.72.72,0,0,0,.12.23C280.52,453.55,281.1,453.66,281.05,453.75Z" style="fill:#263238"></path><path d="M279.46,450.63c0,.14-8.5-.79-18.93-2.09s-18.88-2.46-18.86-2.61,8.49.8,18.92,2.09S279.47,450.49,279.46,450.63Z" style="fill:#263238"></path><path d="M279.56,447c0,.14-8.31-.73-18.52-1.95s-18.47-2.32-18.46-2.46,8.31.73,18.53,1.95S279.58,446.87,279.56,447Z" style="fill:#263238"></path><path d="M284.92,448.49a2.29,2.29,0,0,0-1.07,1.73,2.2,2.2,0,0,0,.87,1.8l3.15-1.53Z" style="fill:#263238"></path></g></svg>
